<svg xmlns="http://www.w3.org/2000/svg" x="0px" y="0px"
width="32" height="32"
viewBox="0 0 32 32">
<path fill="#747A88" d="M16,3C8.832,3,3,8.832,3,16s5.832,13,13,13s13-5.832,13-13S23.168,3,16,3z M19.783,5.684l-3.708,7.881l-3.73-7.928	C13.491,5.232,14.717,5,16,5C17.331,5,18.601,5.25,19.783,5.684z M10.526,6.472L14.539,15h3.072l3.979-8.457	c1.322,0.785,2.466,1.835,3.357,3.082L19.836,21.56L17.691,17h-3.232l-2.145,4.56L7.148,9.497C8.052,8.27,9.2,7.237,10.526,6.472z M5,16c0-1.542,0.322-3.01,0.898-4.343l6.268,14.64C7.988,24.736,5,20.716,5,16z M12.276,26.337l3.799-8.073l3.777,8.027	C18.651,26.742,17.356,27,16,27C14.691,27,13.441,26.758,12.276,26.337z M20.011,26.232l6.164-14.397C26.704,13.121,27,14.526,27,16	C27,20.649,24.096,24.625,20.011,26.232z"></path>
</svg>
