<svg width="118" height="18" viewBox="0 0 118 18" fill="none" xmlns="http://www.w3.org/2000/svg">
<path d="M11.12 3.632C10.352 3.392 9.744 3.224 9.296 3.128C8.848 3.016 8.304 2.96 7.664 2.96C6.368 2.96 5.368 3.488 4.664 4.544C3.96 5.6 3.608 7.048 3.608 8.888C3.608 10.472 3.904 11.84 4.496 12.992C5.088 14.144 6.08 14.72 7.472 14.72C8.16 14.72 8.8 14.648 9.392 14.504C10 14.36 10.552 14.184 11.048 13.976L12.224 16.28C11.6 16.6 10.848 16.856 9.968 17.048C9.088 17.24 8.312 17.336 7.64 17.336C5.096 17.336 3.248 16.52 2.096 14.888C0.944 13.256 0.368 11.264 0.368 8.912C0.368 6.4 1 4.344 2.264 2.744C3.544 1.144 5.376 0.344 7.76 0.344C8.24 0.344 8.904 0.424 9.752 0.584C10.6 0.743999 11.376 1.016 12.08 1.4L11.12 3.632ZM26.6504 4.952L24.5144 10.64H28.8344L26.6504 4.952ZM28.0424 0.68L34.3784 16.568L31.2584 17L29.7944 13.16H23.6024L22.1624 17H19.0424L25.4024 0.68H28.0424ZM47.2351 3.272H45.3151V8.264H47.2831C48.2111 8.264 48.9791 8.08 49.5871 7.712C50.1951 7.328 50.4991 6.704 50.4991 5.84C50.4991 4.928 50.2111 4.272 49.6351 3.872C49.0591 3.472 48.2591 3.272 47.2351 3.272ZM51.6991 17L48.2431 10.76C48.0671 10.776 47.8831 10.792 47.6911 10.808C47.4991 10.808 47.3071 10.808 47.1151 10.808H45.3151V17H42.2191V0.68H47.3311C49.1071 0.68 50.6271 1.088 51.8911 1.904C53.1551 2.72 53.7871 3.984 53.7871 5.696C53.7871 6.704 53.5231 7.576 52.9951 8.312C52.4831 9.032 51.8191 9.592 51.0031 9.992L55.0111 17H51.6991ZM74.3619 17H62.9379V0.68H72.6819L73.1619 3.128H66.0339V7.52H70.4019L70.9059 9.992H66.0339V14.576H73.8579L74.3619 17ZM96.3076 0.68V17H93.1876L85.6276 6.08V17H82.5316V0.68H85.6276L93.1876 11.576V0.68H96.3076ZM104.144 0.68H117.344L117.848 3.128H112.256V17H109.112V3.128H104.144V0.68Z" fill="#303030"/>
</svg>

