<?xml version="1.0" encoding="UTF-8" standalone="no"?>
<svg
   width="501.28000793457034"
   height="75.36453529202126"
   viewBox="0 0 230 34.5791630282359"
   class="css-1j8o68f"
   version="1.1"
   id="svg17"
   sodipodi:docname="logo.svg"
   xmlns:inkscape="http://www.inkscape.org/namespaces/inkscape"
   xmlns:sodipodi="http://sodipodi.sourceforge.net/DTD/sodipodi-0.dtd"
   xmlns="http://www.w3.org/2000/svg"
   xmlns:svg="http://www.w3.org/2000/svg">
  <sodipodi:namedview
     id="namedview19"
     pagecolor="#ffffff"
     bordercolor="#000000"
     borderopacity="0.25"
     inkscape:showpageshadow="2"
     inkscape:pageopacity="0.0"
     inkscape:pagecheckerboard="0"
     inkscape:deskcolor="#d1d1d1" />
  <defs
     id="SvgjsDefs2381" />
  <g
     id="SvgjsG2382"
     featurekey="PG4fjM-0"
     transform="matrix(2,0,0,2,0,-19)"
     fill="#3b3c98">
    <g
       transform="translate(-270 -140)"
       id="g11">
      <g
         id="g9">
        <path
           d="M279,161c-0.736,0-1.375,0.405-1.722,1c-0.172,0.295-0.278,0.635-0.278,1c0,1.102,0.897,2,2,2c1.103,0,2-0.898,2-2    c0-0.365-0.105-0.705-0.278-1C280.375,161.405,279.737,161,279,161z"
           id="path3" />
        <path
           d="M293,161c-0.736,0-1.375,0.405-1.722,1c-0.172,0.295-0.278,0.635-0.278,1c0,1.102,0.897,2,2,2c1.103,0,2-0.898,2-2    c0-0.365-0.105-0.705-0.278-1C294.375,161.405,293.737,161,293,161z"
           id="path5" />
        <path
           d="M299,159v-1l-6-1.715L286,152h-11v1h6v1h-11v1h12v1h-10v1h5v1h-2v1h-4v1h5v1h-1v1h-3v1h4c0-0.352,0.072-0.686,0.184-1    c0.414-1.162,1.512-2,2.816-2c1.305,0,2.402,0.838,2.816,2c0.111,0.314,0.184,0.648,0.184,1h8c0-0.352,0.072-0.686,0.184-1    c0.414-1.162,1.512-2,2.816-2c1.305,0,2.402,0.838,2.816,2c0.111,0.314,0.184,0.648,0.184,1h3v-1h1v-3H299z"
           id="path7" />
      </g>
    </g>
  </g>
  <g
     id="SvgjsG2383"
     featurekey="jxYttZ-0"
     transform="matrix(2.35552861464431,0,0,2.35552861464431,78.2569081006969,-13.049579014316084)"
     fill="#111111">
    <path
       d="M10.88 19.66 c-0.56 0.22666 -1.0966 0.37664 -1.61 0.44998 s-1.0833 0.11 -1.71 0.11 c-1.1333 0 -2.1266 -0.18 -2.98 -0.54 s-1.5633 -0.86334 -2.13 -1.51 s-0.99332 -1.4167 -1.28 -2.31 s-0.43 -1.8733 -0.43 -2.94 s0.14666 -2.0534 0.44 -2.96 s0.72334 -1.6867 1.29 -2.34 s1.27 -1.1633 2.11 -1.53 s1.8 -0.55 2.88 -0.55 c0.62666 0 1.1933 0.06 1.7 0.18 s1 0.28666 1.48 0.5 l-0.82 2.66 c-0.26666 -0.12 -0.56332 -0.22666 -0.88998 -0.32 s-0.71666 -0.14 -1.17 -0.14 c-2.3734 0 -3.56 1.5 -3.56 4.5 c0 1.5067 0.30666 2.62 0.92 3.34 s1.56 1.08 2.84 1.08 c0.42666 0 0.80332 -0.03 1.13 -0.09 s0.65 -0.15 0.97 -0.27 z M17.5 15.42 c-0.13334 -0.02666 -0.2733 -0.04338 -0.41996 -0.050038 s-0.27332 -0.01 -0.37998 -0.01 c-0.56 0 -1.0133 0.08666 -1.36 0.26 s-0.52 0.47334 -0.52 0.9 c0 0.26666 0.06334 0.47666 0.19 0.63 s0.28332 0.26668 0.46998 0.34002 s0.38332 0.11668 0.58998 0.13002 s0.38332 0.02 0.52998 0.02 c0.26666 0 0.56666 -0.03334 0.9 -0.1 l0 -2.12 z M16.46 13.219999999999999 c0.10666 0 0.24996 0.0033594 0.42996 0.01002 s0.38334 0.01666 0.61 0.03 c-0.01334 -0.52 -0.19668 -0.85666 -0.55002 -1.01 s-0.81 -0.23 -1.37 -0.23 c-0.30666 0 -0.66 0.03666 -1.06 0.11 s-0.83334 0.18334 -1.3 0.33 l-0.32 -1.1 c-0.04 -0.14666 -0.09666 -0.36 -0.17 -0.64 s-0.12334 -0.5 -0.15 -0.66 c0.66666 -0.22666 1.2967 -0.39 1.89 -0.49 s1.13 -0.15 1.61 -0.15 c1.4133 0 2.5066 0.33666 3.28 1.01 s1.16 1.75 1.16 3.23 l0 5.86 c-0.52 0.14666 -1.12 0.29 -1.8 0.43 s-1.4133 0.21 -2.2 0.21 c-0.69334 0 -1.3233 -0.06 -1.89 -0.18 s-1.0533 -0.32 -1.46 -0.6 s-0.72 -0.64666 -0.94 -1.1 s-0.33 -1.0067 -0.33 -1.66 s0.13666 -1.2 0.41 -1.64 s0.62668 -0.79 1.06 -1.05 s0.92 -0.44334 1.46 -0.55 s1.0833 -0.16 1.63 -0.16 z M26.060000000000002 9.92 c0.16 -0.10666 0.38332 -0.21 0.66998 -0.31 s0.61 -0.15 0.97 -0.15 c0.30666 0 0.55666 0.01334 0.75 0.04 s0.29 0.03332 0.29 0.01998 l0 2.66 c-0.30666 -0.02666 -0.60666 -0.03332 -0.9 -0.01998 c-0.25334 0.02666 -0.51668 0.07 -0.79002 0.13 s-0.52334 0.17 -0.75 0.33 c-0.26666 0.18666 -0.45666 0.44 -0.57 0.76 s-0.17 0.76 -0.17 1.32 l0 5.32 l-3 0 l0 -7.94 l-1.62 0 l1.28 -2.54 l3.34 0 l0 0.78 c0.06666 -0.05334 0.12666 -0.10668 0.18 -0.16002 c0.05334 -0.04 0.10668 -0.08334 0.16002 -0.13 s0.10668 -0.08332 0.16002 -0.10998 z M30.700000000000003 5.699999999999999 l3.28 -0.000019531 l0 5.4 l4.26 0 l0 -5.4 l3.28 0 l0 14.3 l-3.28 0 l0 -6.1 c-0.08 0.01334 -0.15334 0.02668 -0.22 0.04002 l-0.24 0.04 l-3.36 0 l-0.44 -0.08 l0 6.1 l-3.28 0 l0 -14.3 z M43.800000000000004 9.56 l3.04 -0.000039062 l0 5.44 c0 0.46666 0.04 0.85666 0.12 1.17 s0.2 0.56 0.36 0.74 s0.35666 0.30666 0.59 0.38 s0.51 0.11 0.83 0.11 c0.38666 0 0.73332 -0.02 1.04 -0.06 l-0.04 -0.36 l0 -7.42 l3.04 0 l0 9.88 c-0.49334 0.17334 -1.0833 0.32668 -1.77 0.46002 s-1.39 0.2 -2.11 0.2 c-0.68 0 -1.33 -0.05334 -1.95 -0.16 s-1.1633 -0.33332 -1.63 -0.67998 s-0.83666 -0.85 -1.11 -1.51 s-0.41 -1.55 -0.41 -2.67 l0 -5.52 z M58.260000000000005 5.960000000000001 l-0.000019531 3.46 l-0.1 0.42 c0 -0.01334 0.13334 -0.05668 0.4 -0.13002 s0.63332 -0.11 1.1 -0.11 c0.69334 0 1.3333 0.10334 1.92 0.31 s1.09 0.52332 1.51 0.94998 s0.74666 0.97 0.98 1.63 s0.35 1.45 0.35 2.37 c0 0.72 -0.08334 1.3967 -0.25 2.03 s-0.44332 1.19 -0.82998 1.67 s-0.89332 0.86 -1.52 1.14 s-1.4 0.42 -2.32 0.42 l-0.53 0 l-0.94 -0.04 l-1.23 -0.12 l-1.4 -0.24 l0 -11.3 l-1.66 0 l1.28 -2.44 z M59.220000000000006 17.44 c0.32 0 0.62338 -0.039942 0.91004 -0.11994 s0.53332 -0.22 0.73998 -0.42 s0.37332 -0.46666 0.49998 -0.8 s0.19 -0.74668 0.19 -1.24 s-0.06 -0.91668 -0.18 -1.27 s-0.28 -0.64 -0.48 -0.86 s-0.43666 -0.38 -0.71 -0.48 s-0.56334 -0.15 -0.87 -0.15 c-0.16 0 -0.34666 0.01334 -0.56 0.04 s-0.38 0.05332 -0.5 0.07998 l0 5.14 c0.14666 0.02666 0.29666 0.04666 0.45 0.06 s0.32334 0.02 0.51 0.02 z"
       id="path14" />
  </g>
</svg>
